<?xml version="1.0" encoding="utf-8"?>
<!-- Generator: Adobe Illustrator 23.0.1, SVG Export Plug-In . SVG Version: 6.00 Build 0)  -->
<svg version="1.1" id="Layer_1" xmlns="http://www.w3.org/2000/svg" xmlns:xlink="http://www.w3.org/1999/xlink" x="0px" y="0px"
	 viewBox="0 0 612 792" style="enable-background:new 0 0 612 792;" xml:space="preserve">
<style type="text/css">
	.st0{fill:#FEFEFE;}
	.st1{fill:#CE69A9;}
	.st2{fill:#CE6AA9;}
	.st3{fill:#F7F5F6;}
	.st4{fill:#CF6DAB;}
	.st5{fill:#D174AE;}
	.st6{fill:#CE6FAB;}
	.st7{fill:#B4B4B4;}
	.st8{fill:#B6B6B6;}
	.st9{fill:#F4E5EE;}
	.st10{fill:#B7B5B7;}
	.st11{fill:#B5B5B5;}
	.st12{fill:#BABABA;}
	.st13{fill:#BBBBBB;}
	.st14{fill:#F2E3EC;}
	.st15{fill:#F3F3F3;}
	.st16{fill:#BDBDBD;}
	.st17{fill:#BAB1B6;}
	.st18{fill:#C2C2C2;}
	.st19{fill:#A7A5A6;}
	.st20{fill:#B9B9B9;}
	.st21{fill:#BEBDBE;}
	.st22{fill:#BFBFBF;}
	.st23{fill:#B3B3B3;}
	.st24{fill:#B5B4B4;}
	.st25{fill:#ADADAD;}
	.st26{fill:#CACACA;}
	.st27{fill:#ABABAB;}
	.st28{fill:#DAD6D9;}
	.st29{fill:#848384;}
	.st30{fill:#A9A9A9;}
	.st31{fill:#B2B2B2;}
	.st32{fill:#ACACAC;}
	.st33{fill:#979797;}
	.st34{fill:#838383;}
	.st35{fill:#BEB4BA;}
	.st36{fill:#8C8C8C;}
	.st37{fill:#BEBEBE;}
	.st38{fill:#C3C3C3;}
	.st39{fill:#F4F4F4;}
	.st40{fill:#F8F7F8;}
	.st41{fill:#F0EDEF;}
	.st42{fill:#FCFAFB;}
	.st43{fill:#E8E4E6;}
	.st44{fill:#ECC8DF;}
	.st45{fill:#909090;}
	.st46{fill:#DDB8CF;}
	.st47{fill:#FDFDFD;}
	.st48{fill:#878787;}
	.st49{fill:#F4F1F3;}
	.st50{fill:#F4F3F4;}
	.st51{fill:#EAE9EA;}
	.st52{fill:#C1ADB9;}
	.st53{fill:#C492B2;}
	.st54{fill:#E4E3E4;}
	.st55{fill:#E8E4E7;}
	.st56{fill:#F0EFEF;}
	.st57{fill:#AEAEAE;}
	.st58{fill:#C8C8C8;}
	.st59{fill:#F2F2F2;}
	.st60{fill:#828282;}
	.st61{fill:#979195;}
	.st62{fill:#FCFCFC;}
	.st63{fill:#F9F8F9;}
	.st64{fill:#F5F5F5;}
	.st65{fill:#C6A7BB;}
	.st66{fill:#907786;}
	.st67{fill:#A7A7A7;}
	.st68{fill:#8D8389;}
	.st69{fill:#EDD0E3;}
	.st70{fill:#EBE7EA;}
	.st71{fill:#9D9D9D;}
	.st72{fill:#969094;}
	.st73{fill:#C4BAC1;}
	.st74{fill:#FAF9FA;}
	.st75{fill:#8A8A8A;}
	.st76{fill:#BCBCBC;}
	.st77{fill:#CD6EAA;}
	.st78{fill:#E5E2E4;}
	.st79{fill:#C0C0C0;}
	.st80{fill:#898989;}
	.st81{fill:#A0A0A0;}
	.st82{fill:#868686;}
	.st83{fill:#EFE4EB;}
	.st84{fill:#B69BAC;}
	.st85{fill:#818181;}
	.st86{fill:#7F7C7E;}
	.st87{fill:#888888;}
	.st88{fill:#A8A8A8;}
	.st89{fill:#F0F0F0;}
	.st90{fill:#858585;}
	.st91{fill:#8B8B8B;}
	.st92{fill:#AFAFAF;}
</style>
<g>
	<path class="st0" d="M307,442c-14.17,0-28.33-0.06-42.5,0.06c-2.15,0.02-2.57-0.42-2.56-2.56c0.09-28.33,0.09-56.67,0-85
		c-0.01-2.15,0.41-2.57,2.56-2.56c28.33,0.09,56.67,0.09,85,0c2.15-0.01,2.57,0.41,2.56,2.56c-0.09,28.33-0.09,56.67,0,85
		c0.01,2.15-0.41,2.58-2.56,2.56C335.33,441.94,321.17,442,307,442z"/>
	<path class="st1" d="M322.85,363.35c0.46,0.17,0.92,0.35,1.38,0.52c0.56,0.76,1.49,1.25,1.68,2.28c0.4,3.39,0.71,6.79,1.43,10.29
		c1.93-1.03,3.47-2.58,5.59-3.02c0.76-0.08,1.43,0.09,2,0.62c8.35,1.2,12.01,6.02,11.95,15.75c-2.85,2.06-5.36,4.71-9.06,5.32
		c-0.52-0.55-0.77-1.21-0.9-1.94c-0.25-1.58-0.03-3.23-0.71-4.74c-2.99-4.48-3.69-4.55-6.81-0.67c-0.12,0.73-0.26,1.45-0.47,2.17
		c-0.27,0.79-0.72,1.44-1.49,1.83c-3.39,0.76-6.76,1.39-9.71-1.24c-1.44-2.15-0.85-4.8-1.74-7.09c-0.32-1.74-0.24-3.51-0.34-5.26
		c-0.06-0.7-0.25-1.38-0.39-2.07c-0.41-1.97-0.39-4.05-1.4-5.88c-0.14-0.41-0.17-0.84-0.08-1.27c0.55-0.89,1.29-1.63,1.94-2.45
		c1.01-1.08,2.31-1.68,3.61-2.31C320.42,363.6,321.59,363.27,322.85,363.35z"/>
	<path class="st1" d="M300.24,377.74c1.25,0.07,2.5,0.14,3.75,0.22c1.14-0.68,2.08,0,3.05,0.46c0.57,0.36,1.04,0.82,1.45,1.35
		c0.26,0.36,0.49,0.75,0.69,1.15c0.58,1.23,1.27,2.41,1.72,3.71c0.52,2.32,1.4,4.58,1.23,7.02c-0.04,0.48-0.14,0.96-0.29,1.42
		c-1.21,2.49-3.87,3.46-5.61,5.4c-1.43,0.81-2.85,1.89-4.43,0.29c-0.39-1.25-0.05-2.61-0.55-3.85c-0.22-0.82-0.34-1.65-0.44-2.48
		c-0.13-1.01-0.38-1.98-1.07-2.78c-1.35-1.31-2.76-1.56-4.27-0.26c-0.83,0.67-1.44,1.48-1.7,2.54c0.02,3.24,0.82,6.45,0.39,9.71
		c-0.35,3.09-2.27,4.2-5.16,4.11c-1.77-0.24-3.25-1.03-4.44-2.38c-0.72-0.98-1.19-2.09-1.49-3.26c-0.22-0.92-0.34-1.87-0.5-2.8
		c-0.24-0.93-0.52-1.86-0.68-2.81c-0.3-2.7-0.18-5.41-0.43-8.11c0.04-1.39,0.93-2.18,2-2.85c1.36-0.76,3.15-0.56,4.29-1.86
		c1.52-1.13,2.71,1,4.18,0.42c1.36-2.31,3.48-3.54,6.01-4.18C298.69,377.39,299.45,377.35,300.24,377.74z"/>
	<path class="st2" d="M311.79,430.09c-7.67-2.04-5.39-8.96-6.88-14.03c-1.21-1.41-1.21-3.39-2.31-4.86
		c-0.34-0.93-0.18-1.78,0.43-2.56c1.23-1.2,2.61-2.29,2.94-4.14c0.29-0.91,0.75-1.69,1.57-2.23c0.4-0.27,0.83-0.49,1.27-0.68
		c4.35-2.33,4.16,1.47,5.1,3.76c0.68,2.63,1.38,5.25,1.41,7.99c0.02,0.96,0.26,1.88,0.5,2.8c0.39,1.84,0.45,3.73,0.71,5.59
		c-0.06,1.44,0.24,2.83,0.56,4.23c0.13,1.64,0.14,3.25-1.21,4.49C314.44,431.2,313.11,430.7,311.79,430.09z"/>
	<path class="st3" d="M307.82,403c-0.3,0.67-0.6,1.33-0.9,2c-0.82,1.45-2.08,2.58-2.92,4.02c-0.76,0.42-1.03,1.04-0.8,1.88
		c0.68,1.22,0.33,2.26-0.58,3.18c-0.82,1.79-4.67,1.11-3.61,4.44c-0.02,0.54-0.04,1.07-0.06,1.61c-0.55,1.05-1.33,1.46-2.47,0.92
		c-0.38-0.54-0.14,0.29-0.37-0.32c-1.75-4.6-4.11-8.66-8.97-10.63c-0.64-1.88-1.85-2.73-3.87-2.11c-1.59,0.34-3.19,0.71-4.74-0.15
		c-0.43-0.25-0.77-0.58-1.06-0.97c-0.22-0.44-0.36-0.91-0.43-1.39c0.1-3.74,3.63-5.58,4.82-8.73c0.76-0.35,1.43-0.3,1.97,0.41
		c0.01,0.93,0.03,1.86,0.04,2.79c-0.34,1.25-0.44,2.41,1.13,2.92c1.28,0.76,2.56,1.52,3.84,2.28c2.13,0.67,3.6,2.71,5.97,2.86
		c2.18,0.16,3.53-1.25,4.91-2.6c1.14-1.69,2.08-3.59,4.22-4.29c1.16-0.32,2.32-0.63,3.55-0.42
		C308.43,401.34,308.92,402.06,307.82,403z"/>
	<path class="st4" d="M287.9,409.1c0.05,0.16,0.05,0.38,0.15,0.46c1.98,1.45,8.04,9.11,8.97,11.35c0.12,0.91-0.44,1.55-0.87,2.25
		c-2.37,1.67-4.7,0.55-7.04-0.1c-1.04-0.8-2.75-0.74-3.12-2.42c-0.79-3.83-2.43-7.63-0.37-11.55
		C286.39,408.47,287.15,408.34,287.9,409.1z"/>
	<path class="st4" d="M277.9,406.14c0.06,0.24,0.11,0.47,0.14,0.72c1.08,1.22,1.37,2.64,1.03,4.21c-0.66,2.68,0.94,5.37,0,8.05
		c-0.39,0.39-0.79,0.4-1.19,0.02c-4.19-1.2-8.51-2.26-8.7-7.88c0.65-5.74,0.65-5.74,7.32-6.61
		C277.37,404.76,277.57,405.51,277.9,406.14z"/>
	<path class="st5" d="M269.21,399.05c-4.03-5.34,1.52-6.45,3.95-8.93c0.62-0.64,1.36-0.83,2.22-0.61c2.28,1.3,1.76,3.84,2.57,5.79
		c0.3,1.69,0.4,3.36-0.71,4.84C274.32,401.61,271.84,399.79,269.21,399.05z"/>
	<path class="st6" d="M347.91,397.17c0.06,0.83-0.07,1.74,0.23,2.47c2.2,5.38-0.72,6.94-5.33,7.3c-0.59,0.56-1.3,0.86-2.11,0.92
		c-0.83-0.03-1.55-0.3-2.12-0.93c-0.73-1.24-0.73-2.52-0.2-3.82c1.74-1.95,3.85-3.49,5.8-5.22
		C345.23,396.95,346.33,395.63,347.91,397.17z"/>
	<path class="st7" d="M340.78,407.15c0.68-0.07,1.35-0.14,2.03-0.21c-2.48,7.95-5.23,15.76-11.67,21.56
		c-2.61,2.36-5.38,4.43-9.14,4.43c-0.58-0.62-0.59-1.31-0.25-2.04c8.83-3.79,13.56-10.99,16.43-19.75
		C338.68,409.59,339.13,407.97,340.78,407.15z"/>
	<path class="st8" d="M328.78,436.87c8.18-4.57,13.3-12.04,18.49-19.47c-3.48,8.79-8.33,16.39-17.3,20.51
		C329.52,437.63,328.91,437.53,328.78,436.87z"/>
	<path class="st9" d="M347.91,397.17c-3.97,0.47-5.5,4.57-8.86,5.95c-2.59-0.29-2.05-2.39-2.35-4.02c0.04-1.48,0.07-2.97,1.37-4.02
		c2.7-2.16,5.41-4.3,8.82-5.3c0.25,2.31-1.88,2.38-3.09,3.36c-2.23,1.81-5.12,3.26-4.61,7.32c2.36-0.88,3.41-2.87,5.02-4.14
		C345.79,395.06,347.38,393.83,347.91,397.17z"/>
	<path class="st10" d="M269.21,399.05c2.55-0.2,5.05-0.03,7.44,0.97c2.23-0.1,1.94-2.85,3.67-3.48c0.73-0.17,1.37-0.06,1.87,0.55
		c0.64,4-4.91,5.05-4.29,9.04c-0.32-0.34-0.65-0.69-0.97-1.03c-0.69-0.64-1.45-1.2-2.11-1.88
		C272.45,402.5,271.18,400.3,269.21,399.05z"/>
	<path class="st11" d="M328.78,436.87c0.4,0.35,0.8,0.69,1.19,1.03c-6.19,3.42-12.14,2.56-17.96-0.95c-0.3-0.24-0.4-0.48-0.3-0.72
		c0.1-0.24,0.2-0.36,0.3-0.36C317.54,437.29,323.03,439.2,328.78,436.87z"/>
	<path class="st12" d="M325.13,366.26c-0.3-0.8-0.6-1.59-0.9-2.39c6.18,0.64,9.09,4.71,10.7,10.16c-0.63,0.02-1.27,0.04-1.9,0.07
		C330.18,371.71,328.29,368.34,325.13,366.26z"/>
	<path class="st13" d="M283.06,426.96c3.69,2.01,8.16,0.12,12.89,2.68c-5.53,0.68-9.91,1.15-13.92-1.72
		C281.85,427.04,281.99,426.5,283.06,426.96z"/>
	<path class="st12" d="M306.95,367.99c1.26-4.38,3.98-7.68,8.11-10c-1.31,1.95-2.62,3.89-3.92,5.84c0.34,1.04-1.99,1.29-0.76,2.6
		c-0.15,1.35-0.58,2.5-2.08,2.85C307.55,369.15,307.35,368.47,306.95,367.99z"/>
	<path class="st14" d="M274.82,403.22c1.4-0.15,2.29,0.26,2.11,1.88c-0.51,0.39-1.16,1.23-1.49,1.11c-4.85-1.68-5.59,1.61-6.26,5.03
		C267.83,406.32,269.67,403.61,274.82,403.22z"/>
	<path class="st15" d="M297.76,376.03c-1.59-2.16-0.63-3.55,1.32-4.79c0.94-0.59,1.85-1.1,2.45,0.08c0.99,1.97-0.19,3.4-1.57,4.68
		C299.24,376.66,298.5,375.87,297.76,376.03z"/>
	<path class="st16" d="M306.95,367.99c0.36,0.35,0.71,0.7,1.07,1.06c1.05,3.5-0.39,6.72-1.14,10.02c-0.96-0.37-1.92-0.74-2.88-1.11
		C303.67,374.25,305.87,371.29,306.95,367.99z"/>
	<path class="st17" d="M322,431.25c0,0.56,0,1.12,0,1.69c-3.79,0.46-7.49,0.57-10.21-2.85c1.34-0.02,2.68-0.05,4.02-0.07
		C318.02,429.69,320.29,429.1,322,431.25z"/>
	<path class="st18" d="M296.47,368.79c-3.31,3.1-4.37,3.1-6.97-0.01c1.3-1.01,2.45,0.37,3.72,0.25
		C294.28,368.93,295.32,367.86,296.47,368.79z"/>
	<path class="st19" d="M319.97,364.92c-1.32,0.68-2.64,1.37-3.96,2.05c-1.07,0.3-1.27,1.45-2.01,2.07l0.03-0.02
		c-2.16,0.27-2.34-1.69-3.23-2.86c-0.41-1.83,1.31-1.42,2.1-2c0.64-0.11,1.29-0.23,1.93-0.34c0.74-0.34,1.55-0.22,2.33-0.32
		c1.03-0.11,2.07-0.35,3.01,0.35C320.44,364.28,320.35,364.63,319.97,364.92z"/>
	<path class="st20" d="M284.91,364.89c0.98-3.85,2.99-6.75,7.11-7.7c0.34,0.18,0.44,0.34,0.32,0.49c-0.12,0.14-0.24,0.21-0.36,0.21
		c-2.71,2.55-5.98,4.72-6.09,9.02C283.98,366.99,284.55,365.89,284.91,364.89z"/>
	<path class="st21" d="M283.06,426.96c-0.35,0.32-0.69,0.64-1.03,0.96c-3.63-1.87-4.3-5.14-4.15-8.79c0.4-0.01,0.79-0.01,1.19-0.02
		C278.57,422.67,280.78,424.83,283.06,426.96z"/>
	<path class="st22" d="M287.14,380.93c-0.61-2.44-1.22-4.88-1.83-7.32c0.25-0.11,0.5-0.22,0.75-0.34c1.04,1.85,2.08,3.7,3.12,5.55
		c-0.02,0.9-0.27,1.71-0.95,2.34C287.79,381.42,287.43,381.32,287.14,380.93z"/>
	<path class="st23" d="M291.97,357.88c0.03-0.23,0.04-0.47,0.05-0.7c2.64-1.83,5.28-1.59,7.94-0.04c0.31,0.2,0.41,0.41,0.32,0.62
		c-0.09,0.22-0.19,0.33-0.29,0.33C297.34,357.22,294.65,357.57,291.97,357.88z"/>
	<path class="st24" d="M286.81,420.81c0.77,0.75,1.54,1.5,2.31,2.26c-3.74,0.47-5.31-1.81-6.23-4.92c-0.51-0.85-0.02-1.19,0.71-1.41
		C285.58,417.38,285.84,419.37,286.81,420.81z"/>
	<path class="st25" d="M279.07,411.07c-1.47-1.13-0.96-2.74-1.03-4.21c0.23,0.14,0.48,0.22,0.75,0.24c1.5,1.76,4.2,2.71,3.88,5.71
		c-0.25,0.73-0.6,1.32-1.53,1.11C280.45,412.97,279.76,412.02,279.07,411.07z"/>
	<path class="st26" d="M284.91,364.89c0.32,0.67,0.65,1.35,0.97,2.02c-0.09,1.5,0.86,3.28-1.49,4.49
		C283.96,369.03,283.44,366.93,284.91,364.89z"/>
	<path class="st27" d="M301.81,413.93c0.47-1.01,0.94-2.02,1.4-3.03c2.81,0.98,1.5,3.32,1.7,5.16c-0.74-0.1-1.55-0.04-1.95-0.89
		C302.59,414.75,301.97,414.56,301.81,413.93z"/>
	<path class="st28" d="M287.14,380.93c0.3,0.02,0.59,0.04,0.89,0.03c0.34,0.3,0.45,0.67,0.29,1.11c-1.18,1.23-2.7,1.77-4.32,2.11
		c-1.15,0.21-1.82-0.29-2.08-1.4c-0.01-0.51-0.02-1.03-0.04-1.54c1.43-1.2,2.27,0.12,3.26,0.77
		C285.99,381.97,286.71,381.72,287.14,380.93z"/>
	<path class="st29" d="M281.93,382.78c0.69,0.47,1.38,0.93,2.08,1.4c-0.64,0.62-1.29,1.23-1.93,1.85c-1.05,1.07-2.27,1.06-3.57,0.55
		c-0.55-0.29-0.66-0.7-0.33-1.23C279.43,384.49,280.68,383.64,281.93,382.78z"/>
	<path class="st30" d="M288.32,382.07c-0.1-0.37-0.2-0.74-0.29-1.11c0.02-0.91,0.27-1.69,1.14-2.14c2.2-0.01,1.25,2.68,2.78,3.25
		C290.74,383.82,289.53,381.62,288.32,382.07z"/>
	<path class="st31" d="M301.81,413.93c0.38,0.41,0.77,0.82,1.15,1.23c-1.49,0.91-3.07,1.71-3.94,3.35
		C296,414.58,300.7,415.35,301.81,413.93z"/>
	<path class="st32" d="M319.97,364.92c0.01-0.24,0.03-0.48,0.06-0.72c-0.29-1.15-1.3-1.52-2.19-2.03c-0.24-0.42-0.19-0.78,0.2-1.07
		c2.39-0.92,3.68,0.49,4.82,2.25C321.89,363.88,320.93,364.4,319.97,364.92z"/>
	<path class="st23" d="M278.18,385.35c0.01,0.18-0.04,0.34-0.17,0.47c0.67,2.43-1.03,3.19-2.77,3.93c-0.69,0.12-1.39,0.24-2.08,0.36
		C274.41,388.08,275.72,386.11,278.18,385.35z"/>
	<path class="st25" d="M296.16,423.16c-0.15-0.92-0.06-1.75,0.87-2.25c0.64-0.26,1.29-0.53,1.93-0.79
		C300.67,422.15,300.55,422.27,296.16,423.16z"/>
	<path class="st33" d="M285.15,382.01c-1.09-0.26-2.17-0.51-3.26-0.77c-0.38-0.35-0.76-0.71-1.14-1.06
		c0.06-0.71,0.66-0.78,1.16-0.96C283.88,379.12,285.07,379.91,285.15,382.01z"/>
	<path class="st18" d="M299.99,358.09c-0.01-0.32-0.02-0.63-0.03-0.95c1.66,0.49,2.64,1.72,3.67,3.56
		C301.53,360.64,300.81,359.3,299.99,358.09z"/>
	<path class="st22" d="M281.14,413.92c0.29-0.31,0.58-0.62,0.88-0.94c2.55,0.49,2.54,2.11,1.81,4.06c-0.31,0.37-0.62,0.73-0.93,1.1
		C282.31,416.73,281.72,415.33,281.14,413.92z"/>
	<path class="st22" d="M318.04,361.1c-0.01,0.31-0.02,0.63-0.04,0.94c0.81,1.19-0.54,1.77-0.75,2.67c-0.8-0.29-1.6-0.59-2.41-0.88
		C315.68,362.65,316.57,361.54,318.04,361.1z"/>
	<path class="st34" d="M281.91,379.22c-0.39,0.32-0.78,0.64-1.16,0.96c-0.92-0.29-1.9-0.59-1.54-1.86c0.11-0.39,0.6-0.91,0.96-0.94
		C281.44,377.25,281.16,378.75,281.91,379.22z"/>
	<path class="st35" d="M297.76,376.03c0.72-1.34,1.47-0.1,2.21-0.03c0.09,0.58,0.18,1.16,0.27,1.73c-0.76,0.05-1.52,0.1-2.29,0.15
		C297.89,377.27,297.83,376.65,297.76,376.03z"/>
	<path class="st36" d="M312.91,364.17c-0.65,0.55-1.31,1.1-1.96,1.65c-0.2,0.41-0.5,0.48-0.88,0.26c-1.4-1.59,0.42-1.64,1.07-2.24
		C311.72,363.95,312.31,364.06,312.91,364.17z"/>
	<path class="st37" d="M297.98,366.57c-0.19-1.1-0.37-2.15,0.64-2.78C299.36,364.99,298.98,365.9,297.98,366.57z"/>
	<path class="st38" d="M312.01,435.88c0,0.36,0,0.72,0.01,1.08c-1.04-0.4-2.08-0.81-3.19-1.24
		C310.06,434.42,311.04,435.02,312.01,435.88z"/>
	<path class="st39" d="M310.06,366.08c0.3-0.08,0.59-0.17,0.88-0.26c2.31-0.17,1.87,2.32,3.09,3.21c2.45,1.78,2.11,4.36,1.98,6.88
		c-0.23,0.74,0.26,0.96,0.82,1.13c0.03,1.98,0.06,3.97,0.08,5.95c-0.35,0.23-0.73,0.28-1.13,0.15c-0.92-0.38-1.63-1.11-2.57-1.45
		c-0.96-0.28-2-0.36-2.83-0.98c-0.76-0.39-1.59-0.15-2.38-0.29c-0.38-0.45-0.75-0.9-1.13-1.36c-1.5-3.55,0.27-6.73,1.14-10.02
		C308.7,368.06,309.38,367.07,310.06,366.08z"/>
	<path class="st40" d="M327.83,390.79c0.07-0.55,0.15-1.09,0.22-1.64c2.72-2.09,4.85-0.33,7.03,1.08c0.69,0.72,1.14,1.58,1.46,2.51
		c-0.24,2.14,1.25,4.03,0.94,6.19c-0.1,0.94-0.43,1.78-0.96,2.56c-0.96,1.09-2.04,2-3.56,2.16c-4.41-0.01-5.3-4.18-7.73-6.54
		c-0.23-0.92-0.2-1.82,0.19-2.69c0.23-0.39,0.56-0.67,0.98-0.81c0.76,0.05,1.8,0.33,0.99-1.11
		C327.28,391.86,327.51,391.31,327.83,390.79z"/>
	<path class="st41" d="M316.41,383.02c0.17-0.02,0.33-0.03,0.5-0.02c1.35,2.09,1.1,4.47,1.27,6.78c0.2,1.16,1.31,1.94,1.34,3.17
		c-2.73,2.49,1.27,1.48,1.32,2.52c1.01,1.44-0.15,2.05-1.04,2.78c-0.39,0.24-0.8,0.43-1.24,0.58c-1.32,0.3-2.5,0.88-3.58,1.7
		c-0.42,0.2-0.86,0.32-1.32,0.39c-1.4-0.11-2.76-0.35-4.01-1.04c-1.46-1.14-1.36-2.38-0.25-3.71c0.78-0.93,2.19-1.51,1.81-3.12
		c-0.02-0.36-0.04-0.72-0.06-1.09c0.54-0.87,0.32-2.28,1.75-2.55c4.22-0.47,1.02-4.09,2.43-5.74
		C315.56,383.23,315.92,383.02,316.41,383.02z"/>
	<path class="st42" d="M325.13,366.26c4.71,0.52,6.32,4.15,7.89,7.84c-2.08,1.58-4.64,2.55-6.46,6.03
		C325.98,374.79,324.55,370.67,325.13,366.26z"/>
	<path class="st43" d="M328.15,386.84c3.9-4.98,5.89-4.75,8.99,1.07c0.32,0.92-0.19,1.38-0.93,1.72c-0.49,0.12-0.98,0.14-1.48,0.07
		C332.59,388.65,330.03,388.53,328.15,386.84z"/>
	<path class="st44" d="M319.18,393.29c-0.48-1.13-1.29-2.17-1-3.52c3.02,2.19,6.39,1.12,9.65,1.02c0.04,0.76,0.08,1.51,0.12,2.27
		c-0.13,0.56-0.44,0.92-1.04,1c-0.25,0.06-0.5,0.1-0.75,0.11c-0.38,0.24-0.79,0.37-1.24,0.38c-1.51-0.28-3.05-0.38-4.58-0.61
		C319.9,393.81,319.51,393.59,319.18,393.29z"/>
	<path class="st45" d="M328.15,386.84c2.61-0.25,4.74,0.99,6.85,2.25c0.6,0.68,0.51,1.34-0.04,1.99c-2.06-1.51-4.4-2.06-6.92-1.93
		C328.08,388.38,328.12,387.61,328.15,386.84z"/>
	<path class="st27" d="M337.04,399.02c0.01-2.05-2.45-3.67-1.05-5.97c-0.67-0.96-0.61-1.75,0.53-2.28c1.29,0.19,0.71,1.61,1.43,2.17
		c0.04,0.71,0.07,1.43,0.11,2.14c-0.02,1.31-0.04,2.61-0.06,3.92C337.7,399.47,337.38,399.48,337.04,399.02z"/>
	<path class="st46" d="M337.96,392.94c-0.36-0.67-0.72-1.33-1.08-2c-0.65-0.45-1.38-0.86-0.92-1.85c0.4-0.39,0.8-0.79,1.19-1.18
		C338.48,389.41,337.89,391.23,337.96,392.94z"/>
	<path class="st47" d="M314.01,369.05c0.13-1.22-0.76-3.42,2.01-2.07C315.71,368.02,315.46,369.11,314.01,369.05z"/>
	<path class="st48" d="M316.83,377.04c-0.84,0.19-1.83,1.57-2.47,0.34c-0.8-1.54,0.91-1.15,1.65-1.47
		C316.28,376.29,316.55,376.66,316.83,377.04z"/>
	<path class="st49" d="M275.24,389.75c0.92-1.31,1.85-2.62,2.77-3.93c1.35,0.07,2.71,0.13,4.06,0.2c1.58,2.84,0.72,5.94,0.94,8.92
		c-1.5,1.62-3.37-1.11-4.88,0.42c-0.46,0.1-0.85-0.03-1.17-0.36C275.41,393.58,276.74,391.2,275.24,389.75z"/>
	<path class="st50" d="M293.12,402.02c0.25-3.64-1.25-7.25-0.21-10.91c0.74,0.03,1.42-0.65,2.2-0.16c0.87,0.66,1.37,1.57,1.71,2.59
		c0.74,2.17-0.17,4.39,0.23,6.57c0.69,1.38,2.39,1.65,3.2,2.89c0.23,0.98-0.19,1.74-0.84,2.41c-1.71,0.26-3.14,1.85-5.08,1.09
		C292.91,405.26,293.91,403.4,293.12,402.02z"/>
	<path class="st51" d="M299.9,403.02c-1.54-0.18-2.88-0.75-3.91-1.95c0.99-2.6,1.09-5.33,1.1-8.06c0.08-0.46,0.23-0.9,0.43-1.32
		c0.59-1,1.23-1.97,2.1-2.76c0.43-0.27,0.84-0.26,1.22,0.08c0.32,0.95,0.64,1.91,0.96,2.86c-0.59,1.95-1.33,3.89-0.55,5.97
		C302.42,399.99,304.73,402.45,299.9,403.02z"/>
	<path class="st52" d="M293.12,402.02c0.58,1.36,1.16,2.72,1.74,4.08c-0.61,0.95,0.79,1.78,0.15,2.72
		c-3.11,0.54-4.87-1.18-6.17-3.68C290.33,404.18,293.16,405.06,293.12,402.02z"/>
	<path class="st53" d="M299.9,403.02c3.34-1.01,1.12-3.26,1.12-5.01c0.18-0.09,0.37-0.17,0.55-0.26c0.17,0.12,0.33,0.23,0.5,0.35
		c1.32,1.67,2.5-0.42,3.77-0.15c0.38,0.27,0.59,0.64,0.64,1.1c-0.07,1.64-1.68,1.95-2.51,2.93c-1.35,1.26-2.7,2.52-4.05,3.79
		c-0.41-0.12-0.68-0.39-0.83-0.79C299.36,404.33,299.63,403.68,299.9,403.02z"/>
	<path class="st54" d="M306.18,398.87c-0.06-0.33-0.17-0.63-0.34-0.92c0.73-2.79,3.81-3.02,5.36-4.91c1.49,1.7,0.54,2.86-0.89,3.84
		c-0.95,0.66-1.35,1.29-0.26,2.15c0.24,0.25,0.33,0.5,0.27,0.76c-0.06,0.27-0.12,0.4-0.19,0.4c-1.13,0.78-2.11,0.18-3.11-0.33
		C306.67,399.6,306.39,399.27,306.18,398.87z"/>
	<path class="st55" d="M300.85,389.01c-0.33,0.02-0.67,0.04-1,0.05c-0.91,0.81-1.13,2.06-1.87,2.98l-0.1,0.08
		c-0.54,0.54-1.13,0.96-1.95,0.89c-0.57-0.66-1.14-1.31-1.71-1.97c-1.33-1.13,0.9-1.22,0.6-2.04
		C296.83,384.89,298.84,387.47,300.85,389.01z"/>
	<path class="st33" d="M310.74,380c0.85,1.14,2.61-0.76,3.27,0.99c1.16,1.76,0.39,3.3-0.52,4.83c-0.35,0.34-0.77,0.5-1.26,0.48
		c-0.95-0.71-1.39-2-2.67-2.35c-0.46-1.06-0.91-2.11-1.37-3.17C309.02,380.46,309.7,379.65,310.74,380z"/>
	<path class="st31" d="M277.91,395.01c1.64-4.95,3.42,1,5.11-0.06c0.28,0.73,0.55,1.47,0.82,2.21c-0.55-0.02-1.1-0.04-1.65-0.06
		c-0.66-0.04-1.32-0.07-1.98-0.11C278.97,396.88,277.65,396.87,277.91,395.01z"/>
	<path class="st56" d="M309.56,383.95c2.09-0.82,2.31,0.55,2.4,2.06c1.05,1.16,1.89,2.38,0.96,4.01c-0.59,0.65-1.19,1.29-1.78,1.94
		C310.62,389.29,310.09,386.62,309.56,383.95z"/>
	<path class="st57" d="M301.02,398.01c-3.12-2.48-0.37-4.21,0.79-6.14c0.07,0.95,0.14,1.91,0.21,2.87c-0.04,1.2-0.04,2.41-1.04,3.3
		L301.02,398.01z"/>
	<path class="st58" d="M285.01,402.86c-0.81,0.54-1.62,1.07-2.75,1.83c0.23-1.95,0.6-3.45,1.62-4.75
		C284.26,400.92,284.63,401.89,285.01,402.86z"/>
	<path class="st59" d="M300.99,398.04c-0.1-1.24-0.05-2.43,1.04-3.3c0.82,1.11,1.17,2.23,0.04,3.36
		C301.71,398.08,301.35,398.06,300.99,398.04z"/>
	<path class="st60" d="M310.74,380c-0.85,0.26-1.7,0.52-2.54,0.78c0,0-0.19-0.36-0.19-0.36c0.93-0.59,0.75-2.41,2.32-2.15
		C310.55,378.3,310.6,379.4,310.74,380z"/>
	<path class="st61" d="M294.8,388.99c1.45,1.16-0.92,1.21-0.6,2.04c-0.42,0.31-0.83,0.68-1.29,0.07
		C292.97,389.89,293.45,389.05,294.8,388.99z"/>
	<path class="st62" d="M332.76,403.09c1.05-0.69,2.11-1.38,3.16-2.07c2.87,0.4,1.41,2.78,1.94,4.25c-0.36,1.21-0.95,2.34-1.29,3.56
		c-0.12,0.73-0.46,1.35-1.06,1.79c-1.34,0.96-3.09,1.44-3.79,3.15c0.34-0.57,0.9-0.88,1.49-1.16c1.66-0.66,2.78-1.84,3.39-3.52
		c0.35-0.81,0.49-1.73,1.21-2.35c0.43-0.2,0.86-0.19,1.28,0.03c0.56,0.12,1.13,0.25,1.69,0.37c-2.55,8.06-5.18,16.05-12.51,21.31
		c-1.91,1.37-3.94,2.4-6.27,2.79c-2.05-0.49-4.42,0.63-6.19-1.23c0.02-1.74,0.03-3.49,0.05-5.24c1.44-1.18,3.38-1.72,4.43-3.41
		c1.28-1.9,2.51-3.79,2.13-6.25c-0.02-0.44,0.04-0.88,0.15-1.31c1.39-1.52,0.33-3.83,1.73-5.35
		C328.06,408.15,330.18,405.25,332.76,403.09z"/>
	<path class="st63" d="M314.06,414.07c-0.41-3.03-0.81-6.07-1.22-9.1c-0.43-1.14-0.61-2.24,0.37-3.22c1.08-0.46,2.19-0.04,3.29-0.11
		c1.48,0.6,2.9,1.29,4.01,2.48c0.37,0.63,0.57,1.32,0.7,2.03c-0.27,2.81,3.95,5.94-0.57,8.46c-0.69,0.24-1.4,0.27-2.12,0.11
		C317.22,413.26,315.48,414.76,314.06,414.07z"/>
	<path class="st64" d="M317.63,413.9c0.78,0.03,1.56,0.06,2.34,0.09c1.08,1.6,0.92,3.6,1.73,5.29c-0.09,0.68-0.22,1.35-0.62,1.94
		c-1.59,1.21-2.85,3.77-5.34,1.3c-1.44-2.03-0.63-4.29-0.67-6.47C315.42,414.74,316.29,414.04,317.63,413.9z"/>
	<path class="st65" d="M314.04,401.92c-1.3,0.67-0.94,1.98-1.2,3.05c-1.14-0.87-0.36-5.36-3.75-1.99c-1.16-1.34-0.42-2.09,0.82-2.7
		c0.05-0.42,0.09-0.84,0.14-1.25c1.35,0.38,2.7,0.76,4.05,1.14C314.6,400.77,314.61,401.35,314.04,401.92z"/>
	<path class="st66" d="M315.75,422.53c2.4,1.59,3.4-1.38,5.24-1.61c0.29,0.24,0.39,0.48,0.3,0.73c-0.09,0.25-0.18,0.38-0.27,0.38
		c-1.14,2-2.69,3.23-5.16,2.75C315.46,424.05,315.19,423.31,315.75,422.53z"/>
	<path class="st67" d="M317.63,413.9c-0.85,0.72-1.7,1.44-2.55,2.16c-0.8-0.43-1.07-1.13-1.02-1.99
		C315.33,415.81,316.27,410.16,317.63,413.9z"/>
	<path class="st68" d="M309.91,400.28c-0.27,0.9-0.55,1.8-0.82,2.7c-0.42,0-0.85,0.01-1.27,0.01c0.12-0.83,0.22-1.65-0.82-1.99
		c-0.6-0.67-0.61-1.29,0.16-1.84C308.07,399.54,308.99,399.91,309.91,400.28z"/>
	<path class="st69" d="M304.01,409.01c0.06-2,1.37-3.1,2.92-4.02C306.9,407.02,305.62,408.14,304.01,409.01z"/>
	<path class="st70" d="M283.82,417.04c-0.66-1.33-0.56-3-1.81-4.06c-0.11-2.49-2.98-3.47-3.22-5.89c1.37,0.71,2.7,0.04,4.04-0.13
		c1.08,0.67,2.9,0.26,3.16,2.14c-0.59,3.96,0.88,7.78,0.82,11.71C285.18,420.06,284.27,418.73,283.82,417.04z"/>
	<path class="st71" d="M299.09,404.99c0.28,0.26,0.55,0.53,0.83,0.79c-0.24,3.26-2.71,2.93-4.9,3.04c-0.4-0.89-1.55-1.73-0.15-2.72
		C296.27,405.72,297.68,405.35,299.09,404.99z"/>
	<path class="st72" d="M285.99,409.1c-1.05-0.71-2.11-1.42-3.16-2.14c2.38-0.93,4.6-1.47,5.06,2.14
		C287.26,409.1,286.63,409.1,285.99,409.1z"/>
	<path class="st73" d="M307.16,399.16c-0.05,0.61-0.1,1.23-0.16,1.84c-0.71,1.26-1.9,1.03-3.03,0.99c-0.09-1.62,1.56-2.01,2.21-3.12
		C306.51,398.97,306.83,399.06,307.16,399.16z"/>
	<path class="st74" d="M277.91,395.01c0.77,0.66,1.53,1.31,2.3,1.97c-0.46,1.86-0.18,4.59-3.56,3.03c0.1-1.67,0.21-3.34,0.32-5.01
		C277.28,395.01,277.59,395.01,277.91,395.01z"/>
	<path class="st75" d="M339.1,406.78c-0.34,0.1-0.68,0.19-1.02,0.29c-1.01,0.21-1.5-0.12-1.23-1.21c0.1-1.69,0.97-3.53-0.93-4.84
		c0.38-0.67,0.75-1.33,1.13-2c0.32-0.03,0.64-0.04,0.96-0.03c0.41,1.36-0.7,3.1,1.04,4.13C339.06,404.34,339.08,405.56,339.1,406.78
		z"/>
	<path class="st39" d="M317.25,364.71c-0.48-1.1,0.46-1.79,0.75-2.67c1.6-0.14,3.03-0.13,2.03,2.17
		C319.1,364.38,318.17,364.54,317.25,364.71z"/>
	<path class="st76" d="M312.89,386.02c0.37-1.68,0.75-3.35,1.12-5.03c0.8,0.68,1.6,1.35,2.4,2.03c0,0-0.41-0.02-0.41-0.02
		C315,384.05,315.6,386.74,312.89,386.02z"/>
	<path class="st77" d="M320.07,405.86c-0.05-0.6-0.1-1.19-0.15-1.79c-0.58-0.64-1.42-1.11-1.38-2.15c0.18-1.31-0.26-2.68,0.4-3.94
		l0.26,0.11c1.48-0.89,3.13-1.3,4.77-1.75c0.78-0.05,1.48,0.12,1.96,0.8c2.94,1.22,3.45,5.23,6.83,5.95
		c-1.35,4.35-4.25,6.42-8.84,6.01c-0.37,0.35-0.81,0.54-1.31,0.6C319.97,409.6,320.89,407.15,320.07,405.86z"/>
	<path class="st78" d="M325.93,397.14c-0.62-0.04-1.24-0.08-1.85-0.12c-0.77-0.11-1.27-0.56-1.56-1.26
		c-0.09-0.47-0.05-0.94,0.11-1.39c0.69-0.85,1.47-1.12,2.4-0.37c0.37,0.05,0.75,0.11,1.12,0.17
		C326.08,395.16,326.01,396.15,325.93,397.14z"/>
	<path class="st79" d="M326.91,394.06c0.35-0.33,0.69-0.66,1.04-1c0.87,0.44,2.21,1.3,1.64,1.95
		C328.71,396.01,327.71,394.75,326.91,394.06z"/>
	<path class="st80" d="M335.95,389.09c0.31,0.62,0.62,1.24,0.92,1.85c-0.3,0.7-0.59,1.41-0.89,2.11c-1.02-0.3-0.95-1.17-1.03-1.97
		c0.01-0.67,0.03-1.33,0.04-2C335.32,388.96,335.64,388.96,335.95,389.09z"/>
	<path class="st81" d="M312.89,386.02c1.75-0.27,1.84-2.26,3.11-3.02c0.04,1.29-0.21,2.68,0.17,3.85c1.15,3.5-0.9,3.42-3.25,3.17
		c-0.42-1.32-1.28-2.52-0.97-4.01C312.27,386,312.58,386,312.89,386.02z"/>
	<path class="st82" d="M322.83,394.98c0.02,0.34,0.05,0.68,0.07,1.02c-0.66,0.56-1.35,0.64-2.08,0.11
		c-1.36-0.11-2.45-1.88-4.05-0.63c-0.87,0.68-2.09,0.87-2.27-0.41c-0.22-1.53,1.2-1.03,2.08-0.98c0.97,0.05,1.97,0.25,2.6-0.8
		c0.28-0.12,0.56-0.15,0.85-0.09C320.84,393.99,322.14,394.02,322.83,394.98z"/>
	<path class="st83" d="M318.94,397.98c0.35,1.33,1.98,2.63,0.07,3.99c-1.25,0.17-2.12-0.74-3.18-1.1c-0.39-0.26-0.67-0.61-0.83-1.05
		C315.43,397.31,317.43,398.18,318.94,397.98z"/>
	<path class="st84" d="M320.83,396.11c0.69-0.04,1.39-0.07,2.08-0.11c0.39,0.34,0.78,0.68,1.18,1.02c-1.34,1.67-3.26,0.67-4.88,1.08
		C319.74,397.43,320.28,396.77,320.83,396.11z"/>
	<path class="st85" d="M314.99,399.82c0.29,0.1,0.59,0.2,0.89,0.29c0.68,0.62,0.73,1.32,0.29,2.09c-0.89,1.28-1.44-0.03-2.13-0.28
		c0.02-0.58,0.04-1.17,0.06-1.75C314.42,400.11,314.72,400,314.99,399.82z"/>
	<path class="st86" d="M322.83,394.98c-1.33,0.03-2.67,0.07-2.8-1.78c1.71-0.01,3.61-1.2,5,0.8
		C324.3,394.33,323.57,394.65,322.83,394.98z"/>
	<path class="st87" d="M295.92,393.01c0.41-0.82,1.2-0.82,1.95-0.89c-0.08,3.1,0.77,6.39-1.88,8.95
		C295.97,398.38,295.95,395.7,295.92,393.01z"/>
	<path class="st88" d="M297.97,392.04c0.2-1.26-0.32-2.97,1.87-2.98C299.96,390.52,299.2,391.42,297.97,392.04z"/>
	<path class="st89" d="M320.07,405.86c1.11,0.97,0.39,3.56,2.9,3.29c1.33,1.77,0.9,3.53-0.01,5.3l0.06,0.05
		c-0.3,1.7,0.58,3.88-1.94,4.65c-2.27-1.31-1.61-3.25-1.11-5.15c1.83-1.02,2.79-2.28,0.93-4.09
		C319.69,408.71,320.07,407.26,320.07,405.86z"/>
	<path class="st90" d="M334,412.92c-1.55,0.69-1.67,3.45-5.12,2.7c2.38-2.08,2.38-5.52,6.14-5.64
		C335.61,411.29,334.85,412.12,334,412.92z"/>
	<path class="st20" d="M321.08,419.15c0.65-1.55,1.29-3.1,1.94-4.65c2.14,3.25-0.34,5.28-2,7.53c-0.01-0.37-0.02-0.74-0.03-1.11
		C321.02,420.33,321.05,419.74,321.08,419.15z"/>
	<path class="st91" d="M322.96,414.45c0-1.77,0.01-3.53,0.01-5.3c0.31-0.04,0.63-0.06,0.95-0.06
		C324.87,411.11,325.62,413.08,322.96,414.45z"/>
	<path class="st92" d="M334,412.92c0.34-0.98,0.67-1.96,1.01-2.94c0.34-0.33,0.68-0.66,1.02-0.99c0.36-0.32,0.71-0.33,1.05,0.03
		C336.4,410.6,337.06,413.24,334,412.92z"/>
	<path class="st88" d="M337.08,409.03c-0.35-0.01-0.7-0.02-1.05-0.03c-0.04-1.13-0.26-2.3,0.82-3.14c0.41,0.4,0.82,0.81,1.23,1.21
		C337.75,407.72,337.42,408.37,337.08,409.03z"/>
	<path class="st20" d="M316.17,402.2c-0.1-0.7-0.19-1.4-0.29-2.09c1.19,0.38,2.35,0.8,3.13,1.87c0.3,0.7,0.61,1.39,0.91,2.09
		C318.22,404.35,317.18,403.31,316.17,402.2z"/>
</g>
</svg>
